<svg width="134" height="40" viewBox="0 0 134 40" fill="none" xmlns="http://www.w3.org/2000/svg">
<g clip-path="url(#clip0_109_833)">
<mask id="mask0_109_833" style="mask-type:luminance" maskUnits="userSpaceOnUse" x="0" y="0" width="134" height="40">
<path d="M134 0H0V40H134V0Z" fill="white"/>
</mask>
<g mask="url(#mask0_109_833)">
<path d="M24.981 12.5179C24.981 14.7066 24.4194 16.7641 23.4323 18.5542C23.4184 18.6047 23.3996 18.6546 23.3757 18.7033L14.4783 36.8614L13.262 39.4222C13.1483 39.6618 12.95 39.8126 12.7299 39.8745C12.3478 40.0051 11.885 39.8586 11.6844 39.4369L9.94526 35.7806L1.71689 18.988C1.69524 18.9438 1.67779 18.8986 1.66437 18.853C0.571852 16.9947 -0.0546875 14.8294 -0.0546875 12.5179C-0.0546875 11.8016 0.00547169 11.0994 0.121013 10.416L5.02353 21.7473C6.02671 24.5222 8.56333 26.61 11.696 26.8896C16.0042 27.2739 19.8082 24.0931 20.1926 19.785C20.2429 19.2223 20.2322 18.6681 20.1662 18.1291C19.3021 20.0636 17.6733 21.5949 15.6447 22.318L13.9325 18.6097L13.9973 18.581L12.625 15.4781L5.98959 18.4127C5.52953 17.4835 5.24753 16.4472 5.19041 15.346C5.16708 14.8963 5.18216 14.4536 5.23275 14.021L1.76726 6.011C3.96473 2.40655 7.93294 0 12.4632 0C19.3767 0 24.981 5.60447 24.981 12.5179Z" fill="#105680"/>
<path d="M8.2207 21.1364C9.36178 22.0197 10.6177 22.6115 12.1216 22.7558L10.9306 19.9258L8.2207 21.1364Z" fill="#105680"/>
<path d="M20.3194 16.6655C20.3194 19.6716 18.6257 22.2821 16.1406 23.5948L12.9206 16.4545C12.8396 16.2748 12.7036 16.137 12.5416 16.0521C12.3095 15.9004 12.0077 15.8653 11.7349 15.9854L4.99533 18.9521C4.77484 18.2288 4.65625 17.461 4.65625 16.6655C4.65625 12.3403 8.16256 8.83398 12.4878 8.83398C16.8131 8.83398 20.3194 12.3403 20.3194 16.6655Z" fill="#FFAE00"/>
<path d="M10.9314 19.8398L13.0236 24.4794C12.8463 24.4912 12.6673 24.4974 12.4869 24.4974C10.1115 24.4974 7.98311 23.4398 6.54688 21.77L10.9314 19.8398Z" fill="#FFAE00"/>
<path d="M41.1658 25.942C40.0564 25.942 39.1964 25.6439 38.5862 25.0476C37.976 24.4512 37.6709 23.5984 37.6709 22.4888V12.3789H39.668V22.4057C39.668 23.002 39.8135 23.4596 40.1047 23.7786C40.4098 24.0976 40.8398 24.2572 41.3945 24.2572C42.0186 24.2572 42.5386 24.0837 42.9547 23.7369L43.5788 25.1725C43.2737 25.4359 42.9062 25.63 42.4764 25.7549C42.0603 25.8796 41.6233 25.942 41.1658 25.942ZM35.7988 16.4354V14.792H42.8299V16.4354H35.7988Z" fill="#00426B"/>
<path d="M45.9922 25.8169V14.7915H47.9059V17.7871L47.7187 17.0382C48.0238 16.2754 48.5369 15.6929 49.2581 15.2908C49.9791 14.8886 50.8669 14.6875 51.9208 14.6875V16.6221C51.8375 16.6083 51.7544 16.6013 51.6712 16.6013C51.6018 16.6013 51.5324 16.6013 51.4632 16.6013C50.3952 16.6013 49.5493 16.9203 48.9253 17.5582C48.3012 18.1962 47.9891 19.1184 47.9891 20.325V25.8169H45.9922Z" fill="#00426B"/>
<path d="M54.383 25.8159V14.7905H56.3799V25.8159H54.383ZM55.3813 12.6687C54.9932 12.6687 54.6673 12.5438 54.4038 12.2942C54.154 12.0446 54.0293 11.7395 54.0293 11.3789C54.0293 11.0045 54.154 10.6924 54.4038 10.4428C54.6673 10.1932 54.9932 10.0684 55.3813 10.0684C55.7697 10.0684 56.0887 10.1932 56.3383 10.4428C56.6018 10.6786 56.7336 10.9767 56.7336 11.3373C56.7336 11.7117 56.6087 12.0307 56.3591 12.2942C56.1095 12.5438 55.7836 12.6687 55.3813 12.6687Z" fill="#00426B"/>
<path d="M66.0389 25.9416C65.1236 25.9416 64.2846 25.7336 63.5217 25.3175C62.7729 24.8877 62.1697 24.2567 61.7119 23.4244C61.268 22.5924 61.0462 21.5524 61.0462 20.3042C61.0462 19.056 61.2613 18.0159 61.6911 17.1838C62.135 16.3517 62.7313 15.7276 63.4801 15.3116C64.2429 14.8955 65.0958 14.6875 66.0389 14.6875C67.1205 14.6875 68.0774 14.9233 68.9095 15.3948C69.7417 15.8663 70.4005 16.525 70.8858 17.371C71.3711 18.2031 71.614 19.1808 71.614 20.3042C71.614 21.4275 71.3711 22.4122 70.8858 23.2581C70.4005 24.104 69.7417 24.7628 68.9095 25.2342C68.0774 25.7059 67.1205 25.9416 66.0389 25.9416ZM60.1934 29.8524V14.7915H62.1072V17.7663L61.9823 20.325L62.1903 22.8836V29.8524H60.1934ZM65.8723 24.1942C66.5797 24.1942 67.2107 24.0346 67.7654 23.7157C68.334 23.3967 68.7778 22.9461 69.0968 22.3636C69.4297 21.7673 69.596 21.0808 69.596 20.3042C69.596 19.5137 69.4297 18.8341 69.0968 18.2655C68.7778 17.6831 68.334 17.2323 67.7654 16.9134C67.2107 16.5944 66.5797 16.4349 65.8723 16.4349C65.1791 16.4349 64.548 16.5944 63.9795 16.9134C63.4246 17.2323 62.9809 17.6831 62.6481 18.2655C62.3291 18.8341 62.1697 19.5137 62.1697 20.3042C62.1697 21.0808 62.3291 21.7673 62.6481 22.3636C62.9809 22.9461 63.4246 23.3967 63.9795 23.7157C64.548 24.0346 65.1791 24.1942 65.8723 24.1942Z" fill="#00426B"/>
<path d="M76.9589 25.8164L72.1328 14.791H74.213L78.4983 24.7762H77.5L81.8683 14.791H83.8238L78.9977 25.8164H76.9589Z" fill="#00426B"/>
<path d="M92.1872 25.8169V23.4869L92.0831 23.0502V19.0768C92.0831 18.2308 91.8335 17.579 91.3341 17.1214C90.8488 16.6499 90.1137 16.4141 89.1292 16.4141C88.4774 16.4141 87.8394 16.525 87.2153 16.7469C86.5913 16.955 86.0643 17.2393 85.6343 17.5998L84.8023 16.1021C85.3708 15.6444 86.0504 15.2977 86.8408 15.0619C87.6453 14.8123 88.4843 14.6875 89.358 14.6875C90.8696 14.6875 92.0345 15.055 92.8527 15.79C93.671 16.5251 94.08 17.6484 94.08 19.16V25.8169H92.1872ZM88.5676 25.9416C87.7492 25.9416 87.0282 25.803 86.4041 25.5257C85.7939 25.2481 85.3223 24.8669 84.9894 24.3814C84.6566 23.8822 84.4902 23.3206 84.4902 22.6965C84.4902 22.1002 84.6288 21.5593 84.9062 21.0738C85.1976 20.5885 85.6621 20.2002 86.3 19.9089C86.9519 19.6177 87.8255 19.4721 88.9211 19.4721H92.4159V20.9075H89.0043C88.0057 20.9075 87.3333 21.0738 86.9866 21.4067C86.6398 21.7395 86.4664 22.1418 86.4664 22.6132C86.4664 23.154 86.6815 23.591 87.1113 23.9238C87.5413 24.2428 88.1376 24.4022 88.9002 24.4022C89.6492 24.4022 90.301 24.2359 90.8557 23.903C91.4243 23.5702 91.8335 23.0848 92.0831 22.4469L92.4784 23.8197C92.2149 24.4716 91.7502 24.9916 91.0845 25.3799C90.4188 25.7544 89.5798 25.9416 88.5676 25.9416Z" fill="#00426B"/>
<path d="M103.663 14.6875C104.564 14.6875 105.354 14.8608 106.034 15.2076C106.727 15.5543 107.268 16.0813 107.657 16.7885C108.045 17.4958 108.239 18.3903 108.239 19.4721V25.8169H106.242V19.7009C106.242 18.633 105.978 17.8287 105.452 17.2878C104.938 16.7469 104.21 16.4765 103.267 16.4765C102.56 16.4765 101.943 16.6152 101.416 16.8926C100.889 17.1699 100.48 17.579 100.188 18.1199C99.9111 18.6608 99.7725 19.3334 99.7725 20.1377V25.8169H97.7754V14.7915H99.6893V17.7663L99.3772 16.9758C99.7378 16.2546 100.293 15.6929 101.042 15.2908C101.79 14.8886 102.664 14.6875 103.663 14.6875Z" fill="#00426B"/>
<path d="M116.741 25.9416C115.617 25.9416 114.612 25.6989 113.724 25.2136C112.851 24.7281 112.164 24.0624 111.665 23.2165C111.166 22.3706 110.916 21.3997 110.916 20.3042C110.916 19.2086 111.166 18.2378 111.665 17.3918C112.164 16.5458 112.851 15.8871 113.724 15.4156C114.612 14.9302 115.617 14.6875 116.741 14.6875C117.739 14.6875 118.627 14.8886 119.403 15.2908C120.194 15.6791 120.804 16.2615 121.234 17.0382L119.715 18.0159C119.355 17.475 118.911 17.0798 118.384 16.8302C117.871 16.5666 117.316 16.4349 116.72 16.4349C115.999 16.4349 115.354 16.5944 114.785 16.9134C114.217 17.2323 113.766 17.683 113.433 18.2655C113.1 18.8341 112.934 19.5137 112.934 20.3042C112.934 21.0946 113.1 21.7812 113.433 22.3636C113.766 22.9461 114.217 23.3967 114.785 23.7157C115.354 24.0346 115.999 24.1942 116.72 24.1942C117.316 24.1942 117.871 24.0693 118.384 23.8197C118.911 23.5563 119.355 23.154 119.715 22.6132L121.234 23.5702C120.804 24.3328 120.194 24.9222 119.403 25.3383C118.627 25.7406 117.739 25.9416 116.741 25.9416Z" fill="#00426B"/>
<path d="M128.565 25.9416C127.387 25.9416 126.347 25.6989 125.445 25.2136C124.558 24.7281 123.864 24.0624 123.365 23.2165C122.879 22.3706 122.637 21.3997 122.637 20.3042C122.637 19.2086 122.872 18.2378 123.344 17.3918C123.829 16.5458 124.488 15.8871 125.32 15.4156C126.166 14.9302 127.116 14.6875 128.17 14.6875C129.238 14.6875 130.181 14.9233 130.999 15.3948C131.818 15.8663 132.456 16.532 132.913 17.3918C133.385 18.2378 133.62 19.2294 133.62 20.3666C133.62 20.4497 133.613 20.5469 133.6 20.6577C133.6 20.7687 133.593 20.8728 133.579 20.9697H124.197V19.5345H132.539L131.728 20.0337C131.741 19.3264 131.596 18.6954 131.291 18.1407C130.986 17.586 130.562 17.1561 130.022 16.8509C129.495 16.532 128.878 16.3725 128.17 16.3725C127.477 16.3725 126.86 16.532 126.319 16.8509C125.778 17.1561 125.355 17.5929 125.05 18.1615C124.745 18.7162 124.592 19.3542 124.592 20.0753V20.4082C124.592 21.1432 124.759 21.802 125.091 22.3844C125.438 22.953 125.917 23.3967 126.527 23.7157C127.137 24.0346 127.837 24.1942 128.628 24.1942C129.28 24.1942 129.869 24.0832 130.396 23.8614C130.937 23.6395 131.409 23.3067 131.811 22.8628L132.913 24.1526C132.414 24.7351 131.79 25.1789 131.041 25.484C130.306 25.7891 129.481 25.9416 128.565 25.9416Z" fill="#00426B"/>
</g>
</g>
<defs>
<clipPath id="clip0_109_833">
<rect width="134" height="40" fill="white"/>
</clipPath>
</defs>
</svg>
