<svg width="142" height="40" viewBox="0 0 142 40" fill="none" xmlns="http://www.w3.org/2000/svg">
<g clip-path="url(#clip0_109_853)">
<g clip-path="url(#clip1_109_853)">
<path d="M2.39897 22.228L1.45997 24.412H0.542969L4.23397 15.862H5.24897L8.93997 24.412H7.98997L7.06197 22.228H2.39897ZM2.73797 21.409H6.71197L4.72497 16.79L2.73797 21.409ZM14.994 24.412H14.142V21.016C14.142 19.935 13.574 19.247 12.526 19.247C12.024 19.247 11.609 19.421 11.281 19.782C10.954 20.131 10.79 20.568 10.79 21.092V24.412H9.93797V18.581H10.779V19.651C11.237 18.864 11.903 18.471 12.788 18.471C14.186 18.471 14.994 19.41 14.994 20.808V24.412ZM19.68 16.495C19.68 16.134 19.963 15.851 20.313 15.851C20.673 15.851 20.957 16.134 20.957 16.495C20.957 16.844 20.673 17.128 20.313 17.128C19.963 17.128 19.68 16.844 19.68 16.495ZM20.75 18.581V24.412H19.887V18.581H20.75ZM27.726 24.412H26.874V21.016C26.874 19.935 26.307 19.247 25.258 19.247C24.756 19.247 24.341 19.421 24.013 19.782C23.686 20.131 23.522 20.568 23.522 21.092V24.412H22.67V18.581H23.511V19.651C23.97 18.864 24.636 18.471 25.52 18.471C26.918 18.471 27.726 19.41 27.726 20.808V24.412ZM29.362 16.495C29.362 16.134 29.646 15.851 29.996 15.851C30.356 15.851 30.64 16.134 30.64 16.495C30.64 16.844 30.356 17.128 29.996 17.128C29.646 17.128 29.362 16.844 29.362 16.495ZM30.432 18.581V24.412H29.57V18.581H30.432ZM34.395 24.455C33.292 24.455 32.746 23.942 32.746 22.905V19.334H31.665V18.58H32.746V16.899H33.587V18.58H35.061V19.334H33.587V22.883C33.587 23.429 33.903 23.702 34.537 23.702C34.766 23.702 34.941 23.691 35.061 23.658V24.368C34.875 24.422 34.646 24.455 34.395 24.455ZM36.293 16.495C36.293 16.134 36.577 15.851 36.927 15.851C37.287 15.851 37.571 16.134 37.571 16.495C37.571 16.844 37.287 17.128 36.927 17.128C36.577 17.128 36.293 16.844 36.293 16.495ZM37.364 18.581V24.412H36.501V18.581H37.364ZM41.184 21.048H42.8V20.655C42.8 19.705 42.309 19.236 41.315 19.236C40.562 19.236 40.005 19.618 39.645 20.382L38.946 19.989C39.382 18.985 40.18 18.482 41.337 18.482C42.407 18.482 43.117 18.886 43.466 19.683C43.586 19.967 43.641 20.284 43.641 20.644V24.412H42.811V23.385H42.8C42.32 24.139 41.665 24.51 40.835 24.51C40.256 24.51 39.775 24.346 39.415 24.029C39.055 23.702 38.88 23.287 38.88 22.795V22.73C38.88 22.151 39.109 21.736 39.568 21.463C40.038 21.19 40.573 21.048 41.184 21.048ZM42.8 21.955V21.747H41.173C40.507 21.736 39.765 21.965 39.732 22.73C39.732 23.374 40.256 23.756 40.988 23.756C41.512 23.756 41.948 23.593 42.287 23.254C42.626 22.915 42.8 22.49 42.8 21.955ZM47.479 24.455C46.376 24.455 45.83 23.942 45.83 22.905V19.334H44.749V18.58H45.83V16.899H46.671V18.58H48.145V19.334H46.671V22.883C46.671 23.429 46.988 23.702 47.621 23.702C47.85 23.702 48.025 23.691 48.145 23.658V24.368C47.96 24.422 47.73 24.455 47.479 24.455ZM49.378 16.495C49.378 16.134 49.662 15.851 50.011 15.851C50.372 15.851 50.655 16.134 50.655 16.495C50.655 16.844 50.372 17.128 50.011 17.128C49.662 17.128 49.378 16.844 49.378 16.495ZM50.448 18.581V24.412H49.585V18.581H50.448ZM51.659 18.581H52.598L54.596 23.472L56.627 18.581H57.533L55.044 24.412H54.137L51.659 18.581ZM63.697 21.758H58.979C59.012 22.326 59.231 22.806 59.624 23.189C60.017 23.571 60.497 23.756 61.065 23.756C61.884 23.756 62.572 23.287 62.91 22.588L63.544 23.003C63.052 23.964 62.124 24.51 61.076 24.51C60.235 24.51 59.536 24.215 58.968 23.636C58.401 23.047 58.117 22.326 58.117 21.485C58.117 20.677 58.39 19.978 58.936 19.378C59.482 18.777 60.159 18.482 60.956 18.482C61.829 18.482 62.507 18.766 62.987 19.323C63.467 19.88 63.708 20.59 63.708 21.474C63.708 21.605 63.708 21.704 63.697 21.758ZM58.99 21.037H62.845C62.725 19.945 62.048 19.225 60.956 19.225C60.465 19.225 60.028 19.399 59.656 19.76C59.285 20.109 59.067 20.535 58.99 21.037ZM70.442 16.244C69.918 16.244 69.47 16.571 69.47 17.478V18.581H70.999V19.323H69.47V24.412H68.618V19.323H67.537V18.581H68.618V17.499C68.618 16.189 69.328 15.49 70.409 15.49C70.617 15.49 70.835 15.523 71.053 15.599V16.32C70.901 16.265 70.693 16.244 70.442 16.244ZM72.15 18.58H72.99V19.738C73.394 18.897 74.126 18.493 74.869 18.493C75.01 18.493 75.109 18.493 75.152 18.504V19.41C75.01 19.399 74.901 19.388 74.825 19.388C74.191 19.388 73.733 19.607 73.438 20.033C73.143 20.459 73.001 20.961 73.001 21.561V24.411H72.15V18.58ZM78.672 24.51C77.831 24.51 77.11 24.215 76.532 23.636C75.953 23.058 75.669 22.348 75.669 21.518C75.669 20.655 75.953 19.935 76.532 19.356C77.11 18.777 77.831 18.482 78.694 18.482C79.535 18.482 80.244 18.777 80.823 19.356C81.402 19.935 81.697 20.633 81.697 21.474C81.697 22.337 81.402 23.058 80.823 23.636C80.244 24.215 79.524 24.51 78.672 24.51ZM78.694 23.756C79.305 23.756 79.808 23.538 80.212 23.101C80.616 22.664 80.823 22.14 80.823 21.518C80.823 20.895 80.616 20.349 80.212 19.902C79.808 19.454 79.294 19.225 78.672 19.225C78.05 19.225 77.547 19.443 77.143 19.88C76.739 20.317 76.543 20.852 76.543 21.474C76.543 22.097 76.739 22.643 77.143 23.09C77.547 23.538 78.071 23.756 78.694 23.756ZM88.012 24.412H87.172V20.994C87.172 19.978 86.669 19.247 85.665 19.247C85.173 19.247 84.78 19.432 84.485 19.793C84.191 20.153 84.049 20.59 84.049 21.092V24.412H83.197V18.581H84.038V19.596C84.529 18.843 85.086 18.471 85.916 18.471C86.8 18.471 87.423 18.864 87.783 19.64C88.285 18.864 88.973 18.482 89.836 18.482C91.201 18.482 91.987 19.41 91.987 20.808V24.412H91.135V21.016C91.135 19.967 90.644 19.258 89.629 19.258C89.137 19.258 88.744 19.432 88.449 19.782C88.155 20.12 88.012 20.546 88.012 21.059V24.412Z" fill="#1B1818"/>
<path d="M141.175 15.55H138.464C138.292 8.432 132.472 2.714 125.32 2.714C118.168 2.714 112.348 8.432 112.176 15.55H109.485C109.647 6.992 116.693 -3.80142e-07 125.331 -3.80142e-07C129.483 -0.00700038 133.47 1.619 136.434 4.528C139.398 7.437 141.101 11.396 141.175 15.55Z" fill="#18484C"/>
<path d="M124.22 28.905V31.688C116.139 31.129 109.726 24.502 109.496 16.328H112.219C112.368 20.737 114.77 24.754 118.371 27.002C118.155 26.337 118.002 25.593 118.002 24.86V7.123H120.722V18.143H123.441V20.866H120.722V24.86C120.722 26.537 121.776 27.985 123.198 28.654C123.519 28.802 123.866 28.887 124.22 28.905Z" fill="#96CA4C"/>
<path d="M141.183 16.199C141.065 22.14 137.687 27.279 132.767 29.902V25.404C132.767 25.275 132.758 25.161 132.758 25.032C132.758 22.721 130.851 20.866 128.542 20.866H124.217V18.144H127.785C130.093 18.144 131.971 16.305 131.971 13.995C131.971 11.684 130.093 9.846 127.785 9.846H121.497V7.123H127.785C131.598 7.123 134.702 10.191 134.702 14.009C134.702 16.117 133.755 17.98 132.266 19.247C133.868 20.271 135.098 21.644 135.228 24.497C137.56 21.904 138.467 18.403 138.467 16.199H141.183Z" fill="#96CA4C"/>
<path d="M111.099 35.285H109.997C109.98 35.285 109.963 35.279 109.949 35.269C109.935 35.258 109.925 35.243 109.92 35.226L109.57 33.999C109.566 33.987 109.566 33.974 109.568 33.962C109.57 33.949 109.575 33.938 109.583 33.928C109.59 33.918 109.6 33.91 109.611 33.904C109.623 33.899 109.635 33.896 109.647 33.896H113.853C113.871 33.896 113.888 33.902 113.902 33.913C113.916 33.923 113.926 33.938 113.931 33.955L114.269 35.183C114.272 35.195 114.273 35.208 114.27 35.22C114.268 35.232 114.263 35.243 114.255 35.253C114.248 35.263 114.238 35.271 114.227 35.277C114.216 35.282 114.204 35.285 114.191 35.285H112.844C112.822 35.285 112.802 35.294 112.787 35.309C112.772 35.324 112.763 35.344 112.763 35.366V39.918C112.763 39.939 112.755 39.96 112.74 39.975C112.724 39.99 112.704 39.999 112.683 39.999H111.26C111.249 39.999 111.239 39.997 111.229 39.993C111.219 39.989 111.21 39.983 111.203 39.975C111.195 39.968 111.189 39.959 111.185 39.949C111.181 39.939 111.179 39.929 111.179 39.918V35.366C111.179 35.344 111.171 35.324 111.156 35.309C111.141 35.294 111.12 35.285 111.099 35.285Z" fill="#333333"/>
<path d="M117.709 38.916H115.22C115.206 38.916 115.192 38.92 115.18 38.927C115.168 38.934 115.158 38.944 115.151 38.956L114.564 39.96C114.557 39.972 114.547 39.982 114.535 39.989C114.523 39.996 114.509 40 114.495 40H113.046C113.032 40 113.018 39.996 113.006 39.989C112.994 39.982 112.984 39.972 112.977 39.959C112.969 39.947 112.966 39.933 112.966 39.919C112.966 39.905 112.969 39.891 112.977 39.879L116.397 33.932C116.404 33.92 116.414 33.91 116.426 33.903C116.438 33.896 116.452 33.892 116.466 33.892C116.481 33.892 116.494 33.896 116.507 33.903C116.519 33.91 116.529 33.92 116.536 33.932L119.952 39.879C119.959 39.891 119.963 39.905 119.963 39.919C119.963 39.934 119.959 39.947 119.952 39.959C119.945 39.972 119.935 39.982 119.923 39.989C119.91 39.996 119.896 40 119.882 40H118.434C118.42 40 118.406 39.996 118.394 39.989C118.381 39.982 118.371 39.972 118.364 39.96L117.778 38.956C117.771 38.944 117.761 38.934 117.749 38.927C117.736 38.92 117.724 38.916 117.709 38.916ZM117.029 37.668L116.536 36.824C116.529 36.812 116.519 36.802 116.506 36.795C116.494 36.788 116.48 36.784 116.466 36.784C116.452 36.784 116.438 36.788 116.426 36.795C116.414 36.802 116.404 36.812 116.397 36.824L115.901 37.667C115.894 37.68 115.89 37.694 115.89 37.708C115.89 37.722 115.893 37.736 115.9 37.748C115.907 37.761 115.917 37.771 115.93 37.778C115.942 37.785 115.956 37.789 115.97 37.789H116.959C116.973 37.789 116.987 37.785 116.999 37.778C117.011 37.771 117.022 37.761 117.029 37.749C117.036 37.736 117.039 37.722 117.039 37.708C117.039 37.694 117.036 37.68 117.029 37.668Z" fill="#333333"/>
<path d="M123.894 39.999H120.32C120.299 39.999 120.278 39.99 120.263 39.975C120.248 39.96 120.239 39.939 120.239 39.918V33.98C120.239 33.959 120.248 33.939 120.263 33.923C120.278 33.908 120.299 33.9 120.32 33.9L121.743 33.896C121.753 33.896 121.764 33.898 121.774 33.902C121.783 33.906 121.792 33.912 121.8 33.92C121.807 33.927 121.813 33.936 121.817 33.946C121.821 33.956 121.823 33.966 121.823 33.977V38.525C121.823 38.546 121.832 38.566 121.847 38.582C121.862 38.597 121.883 38.605 121.904 38.605H124.268C124.281 38.605 124.293 38.608 124.305 38.614C124.316 38.62 124.326 38.628 124.333 38.638C124.341 38.648 124.346 38.66 124.348 38.672C124.35 38.685 124.349 38.697 124.345 38.709L123.971 39.941C123.966 39.958 123.956 39.972 123.942 39.983C123.928 39.993 123.911 39.999 123.894 39.999Z" fill="#333333"/>
<path d="M124.797 39.905V33.977C124.797 33.955 124.806 33.935 124.821 33.92C124.836 33.904 124.856 33.896 124.878 33.896H126.595C127.105 33.896 127.556 33.959 127.947 34.085C128.332 34.209 128.634 34.411 128.853 34.692C129.068 34.973 129.176 35.335 129.176 35.78C129.174 36.113 129.076 36.438 128.894 36.717C128.738 36.974 128.507 37.175 128.231 37.294C128.22 37.298 128.211 37.304 128.203 37.313C128.195 37.322 128.189 37.331 128.185 37.343C128.181 37.354 128.18 37.365 128.181 37.377C128.182 37.389 128.186 37.4 128.192 37.41L129.672 39.873C129.679 39.885 129.683 39.899 129.683 39.913C129.683 39.928 129.68 39.941 129.673 39.954C129.666 39.966 129.656 39.977 129.643 39.984C129.631 39.991 129.617 39.995 129.603 39.995H127.94C127.926 39.995 127.911 39.991 127.899 39.983C127.886 39.976 127.876 39.966 127.869 39.953L126.399 37.259H126.381V39.905C126.381 39.927 126.373 39.947 126.357 39.963C126.342 39.978 126.322 39.986 126.3 39.986H124.878C124.856 39.986 124.836 39.978 124.821 39.963C124.806 39.947 124.797 39.927 124.797 39.905ZM126.381 36.816C126.381 36.826 126.383 36.837 126.388 36.847C126.392 36.857 126.398 36.866 126.406 36.874C126.413 36.881 126.423 36.887 126.433 36.891C126.443 36.895 126.453 36.897 126.464 36.897C126.694 36.891 126.888 36.862 127.046 36.808C127.208 36.758 127.351 36.657 127.451 36.519C127.545 36.388 127.592 36.217 127.592 36.008C127.592 35.692 127.492 35.477 127.291 35.363C127.102 35.256 126.826 35.199 126.464 35.191C126.453 35.191 126.443 35.193 126.433 35.197C126.422 35.201 126.413 35.207 126.406 35.215C126.398 35.222 126.392 35.231 126.388 35.241C126.383 35.251 126.381 35.262 126.381 35.272V36.816Z" fill="#333333"/>
<path d="M134.388 34.326C134.848 34.59 135.232 34.97 135.499 35.429C135.771 35.892 135.913 36.42 135.91 36.957C135.914 37.493 135.772 38.02 135.499 38.48C135.23 38.941 134.844 39.322 134.382 39.587C133.919 39.852 133.395 39.99 132.862 39.988C132.328 39.989 131.804 39.851 131.341 39.586C130.877 39.322 130.491 38.941 130.221 38.48C129.947 38.02 129.805 37.493 129.81 36.957C129.806 36.42 129.948 35.892 130.221 35.429C130.49 34.971 130.875 34.591 131.336 34.326C131.801 34.061 132.327 33.922 132.862 33.922C133.397 33.922 133.923 34.061 134.388 34.326ZM132.044 35.486C131.796 35.644 131.592 35.861 131.449 36.118C131.306 36.375 131.229 36.663 131.226 36.957C131.226 37.249 131.303 37.537 131.45 37.79C131.59 38.051 131.795 38.271 132.044 38.431C132.287 38.589 132.57 38.672 132.86 38.672C133.149 38.672 133.433 38.589 133.676 38.431C133.925 38.27 134.131 38.05 134.274 37.79C134.418 37.536 134.493 37.249 134.493 36.957C134.493 36.665 134.418 36.378 134.274 36.123C134.132 35.865 133.928 35.646 133.68 35.486C133.436 35.329 133.152 35.245 132.862 35.245C132.571 35.244 132.287 35.328 132.044 35.486Z" fill="#333333"/>
<path d="M136.543 39.918V33.977C136.543 33.955 136.552 33.935 136.567 33.92C136.582 33.904 136.602 33.896 136.624 33.896H138.473C138.904 33.896 139.271 33.928 139.575 33.991C139.86 34.044 140.132 34.152 140.376 34.309C140.601 34.459 140.781 34.669 140.895 34.915C141.016 35.17 141.077 35.481 141.077 35.849C141.081 36.129 141.019 36.406 140.895 36.657C140.773 36.895 140.601 37.104 140.389 37.268C140.16 37.446 139.899 37.578 139.62 37.659C139.318 37.751 139.003 37.798 138.687 37.797H138.212C138.202 37.797 138.191 37.799 138.181 37.803C138.171 37.807 138.163 37.813 138.155 37.821C138.148 37.828 138.142 37.837 138.138 37.847C138.134 37.857 138.132 37.867 138.132 37.878V39.918C138.132 39.94 138.123 39.96 138.108 39.976C138.093 39.991 138.072 39.999 138.051 39.999H136.624C136.602 39.999 136.582 39.991 136.567 39.976C136.552 39.96 136.543 39.94 136.543 39.918ZM138.132 35.271V36.422C138.132 36.443 138.14 36.464 138.155 36.479C138.17 36.494 138.191 36.502 138.212 36.502H138.587C138.878 36.502 139.103 36.445 139.261 36.33C139.415 36.218 139.493 36.055 139.493 35.84C139.493 35.631 139.415 35.47 139.261 35.358C139.103 35.246 138.878 35.191 138.587 35.191H138.212C138.191 35.191 138.17 35.199 138.155 35.214C138.14 35.229 138.132 35.25 138.132 35.271Z" fill="#333333"/>
</g>
</g>
<defs>
<clipPath id="clip0_109_853">
<rect width="142" height="40" fill="white"/>
</clipPath>
<clipPath id="clip1_109_853">
<rect width="142" height="40" fill="white"/>
</clipPath>
</defs>
</svg>
